<?xml version="1.0" standalone="no"?>
<!DOCTYPE svg PUBLIC "-//W3C//DTD SVG 20010904//EN"
 "http://www.w3.org/TR/2001/REC-SVG-20010904/DTD/svg10.dtd">
<svg version="1.0" xmlns="http://www.w3.org/2000/svg"
 width="1024.000000pt" height="1024.000000pt" viewBox="0 0 1024.000000 1024.000000"
 preserveAspectRatio="xMidYMid meet">
<metadata>
Created by potrace 1.14, written by Peter Selinger 2001-2017
</metadata>
<g transform="translate(0.000000,1024.000000) scale(0.100000,-0.100000)"
fill="#000000" stroke="none">
<path d="M1679 10236 c-2 -3 -16 -7 -29 -9 -143 -27 -312 -182 -346 -316 -2
-9 -8 -37 -14 -62 -7 -31 -10 -230 -8 -600 4 -615 2 -593 73 -704 58 -90 166
-177 250 -200 17 -4 37 -10 45 -12 8 -2 49 -6 90 -8 41 -3 77 -5 80 -6 3 -1 9
-1 13 0 4 1 47 1 95 1 170 0 195 1 201 5 4 2 13 0 19 -4 7 -4 33 -5 58 -1 24
4 46 4 49 1 2 -4 31 -4 65 -1 34 3 63 3 65 -1 3 -3 25 -3 49 1 25 4 50 4 55 0
6 -3 38 -3 71 0 33 3 65 3 71 0 5 -4 30 -4 55 0 24 4 46 4 49 1 2 -4 31 -4 65
-1 34 3 63 3 65 -1 3 -3 25 -3 49 1 25 4 51 3 58 -1 6 -4 15 -6 19 -4 6 4 30
5 202 5 49 0 93 2 98 5 5 4 9 2 9 -2 0 -5 27 -6 60 -3 33 3 60 3 60 0 0 -4 23
-4 50 0 28 4 50 4 50 0 0 -4 23 -4 50 0 28 4 50 4 50 0 0 -3 27 -3 60 0 33 3
60 3 60 0 0 -4 24 -3 53 1 28 3 55 5 59 3 8 -5 77 -6 166 -2 34 2 62 1 62 -2
0 -3 28 -4 62 -2 35 1 86 2 113 1 28 0 59 0 70 1 11 1 25 1 30 1 56 0 113 0
125 0 8 0 38 0 65 0 28 0 58 -1 68 0 9 0 33 0 52 0 19 0 43 0 53 0 9 0 47 0
85 -1 37 -1 71 2 76 5 6 3 12 1 15 -3 3 -5 25 -6 48 -3 24 4 56 4 72 1 16 -3
64 -3 106 0 42 3 90 3 106 0 16 -3 48 -3 72 1 23 3 45 2 48 -3 3 -4 9 -6 15
-3 5 3 39 6 76 5 38 -1 76 -1 86 -1 9 0 33 0 52 0 19 0 43 0 53 0 9 1 40 0 67
0 28 0 57 0 65 0 8 0 40 0 70 0 30 0 61 0 68 0 30 2 40 2 87 2 28 -1 78 0 113
1 34 2 62 1 62 -2 0 -4 46 -4 140 0 14 1 55 1 93 1 73 0 77 0 155 -1 29 0 57
2 62 5 5 3 11 1 15 -5 4 -6 10 -8 16 -5 5 3 39 6 76 5 38 -1 76 -1 86 -1 9 0
33 0 52 0 19 0 43 0 53 0 9 1 40 0 67 0 28 0 57 0 65 0 8 0 40 0 70 0 30 0 61
0 68 0 30 2 40 2 87 2 28 -1 78 0 113 1 34 2 62 1 62 -2 0 -3 28 -4 62 -2 99
4 159 3 169 -3 5 -4 9 -1 9 5 0 6 4 9 9 5 10 -6 70 -7 169 -3 34 2 62 1 62 -2
0 -3 28 -4 62 -2 35 1 86 2 113 1 48 0 60 0 88 2 6 0 35 0 62 0 28 0 58 0 68
0 9 0 51 0 92 -1 41 -1 79 1 84 5 5 3 12 1 16 -5 4 -6 11 -8 16 -4 5 3 19 7
32 10 52 10 64 13 107 29 112 44 221 156 270 278 l25 62 2 578 c1 318 -2 586
-6 595 -5 9 -14 35 -21 57 -37 116 -146 228 -275 281 l-70 29 -3451 3 c-1898
1 -3453 0 -3455 -2z"/>
<path d="M1960 7678 c0 -3 -8 -4 -19 -1 -12 3 -20 -2 -24 -16 -3 -12 -1 -23 4
-26 4 -3 4 -16 -1 -30 -6 -15 -6 -27 0 -30 5 -3 6 -15 1 -28 -5 -12 -5 -34 0
-49 4 -16 4 -28 -1 -28 -5 0 -5 -13 0 -30 5 -17 5 -30 0 -30 -5 0 -5 -13 0
-29 4 -15 4 -34 0 -42 -5 -7 -5 -20 0 -29 5 -9 5 -22 0 -30 -5 -8 -5 -21 0
-30 5 -9 5 -22 0 -30 -5 -8 -5 -21 0 -30 4 -8 4 -22 0 -31 -5 -8 -5 -21 0 -28
4 -8 4 -27 0 -42 -5 -16 -5 -29 0 -29 5 0 5 -13 0 -30 -5 -17 -5 -30 0 -30 5
0 5 -13 0 -30 -5 -17 -5 -30 0 -30 5 0 5 -13 0 -30 -5 -17 -5 -30 0 -30 5 0 5
-13 0 -30 -5 -17 -5 -30 0 -30 5 0 5 -13 0 -30 -5 -17 -5 -30 0 -30 5 0 5 -13
0 -30 -5 -17 -5 -30 0 -30 5 0 5 -13 0 -30 -5 -17 -5 -30 0 -30 5 0 5 -13 0
-30 -5 -17 -5 -30 0 -30 5 0 5 -13 0 -30 -5 -17 -5 -30 0 -30 5 0 5 -13 0 -30
-5 -16 -6 -30 -2 -30 8 0 7 -84 -1 -97 -3 -5 -2 -15 3 -23 4 -7 4 -24 0 -36
-6 -14 -5 -26 0 -29 5 -3 5 -18 0 -35 -5 -17 -5 -32 0 -35 5 -3 6 -15 0 -29
-4 -12 -4 -29 0 -36 5 -8 5 -21 0 -30 -5 -9 -5 -22 0 -30 5 -8 5 -21 0 -30 -5
-9 -5 -22 0 -30 4 -7 4 -24 0 -36 -6 -14 -5 -26 0 -29 5 -3 5 -18 0 -35 -5
-17 -5 -32 0 -35 5 -3 6 -15 0 -29 -4 -12 -4 -29 0 -36 5 -8 6 -18 3 -23 -8
-13 -9 -97 -1 -97 4 0 3 -13 -2 -30 -5 -17 -5 -30 0 -30 5 0 5 -13 0 -29 -4
-15 -4 -34 0 -42 5 -7 5 -20 0 -29 -5 -9 -5 -22 0 -30 5 -8 5 -21 0 -30 -5 -9
-5 -22 0 -30 5 -8 5 -21 0 -30 -5 -9 -5 -22 0 -30 5 -8 5 -21 0 -30 -5 -9 -5
-22 0 -30 5 -8 5 -21 0 -30 -5 -9 -5 -22 0 -30 5 -8 5 -21 0 -30 -5 -9 -5 -22
0 -30 5 -8 5 -21 0 -30 -5 -9 -5 -22 0 -30 5 -8 5 -21 0 -30 -5 -9 -5 -22 0
-30 5 -8 5 -21 0 -30 -5 -9 -5 -22 0 -30 5 -8 5 -21 0 -30 -5 -9 -5 -22 0 -30
5 -8 5 -21 0 -30 -5 -9 -5 -22 0 -30 5 -8 5 -21 0 -30 -5 -9 -5 -22 0 -30 5
-8 5 -21 0 -30 -5 -9 -5 -22 0 -30 5 -8 5 -21 0 -30 -5 -9 -5 -22 0 -30 5 -8
5 -21 0 -30 -5 -9 -5 -22 0 -29 4 -8 4 -27 0 -42 -5 -16 -5 -29 0 -29 5 0 5
-13 0 -30 -5 -16 -6 -30 -2 -30 8 0 7 -84 -1 -97 -3 -5 -2 -15 3 -23 4 -7 4
-24 0 -36 -6 -14 -5 -26 0 -29 5 -3 5 -18 0 -35 -5 -17 -5 -32 0 -35 5 -3 6
-15 0 -29 -4 -12 -4 -29 0 -36 5 -8 5 -21 0 -30 -5 -9 -5 -22 0 -30 5 -8 5
-21 0 -30 -5 -9 -5 -22 0 -30 4 -7 4 -24 0 -36 -6 -14 -5 -26 0 -29 5 -3 5
-18 0 -35 -5 -17 -5 -32 0 -35 5 -3 6 -15 0 -29 -4 -12 -5 -29 0 -36 4 -7 5
-20 2 -29 -7 -19 -7 -63 0 -82 3 -9 2 -22 -2 -29 -5 -8 -5 -21 0 -30 5 -9 5
-22 0 -29 -4 -8 -4 -27 0 -42 5 -16 5 -29 0 -29 -5 0 -5 -13 0 -30 5 -17 5
-30 0 -30 -5 0 -5 -13 0 -29 4 -15 4 -34 0 -42 -5 -7 -5 -20 0 -29 5 -9 5 -22
0 -30 -5 -8 -5 -21 0 -30 5 -9 5 -22 0 -30 -5 -8 -5 -21 0 -30 4 -8 4 -22 0
-31 -5 -8 -5 -21 0 -28 4 -8 4 -27 0 -42 -5 -16 -5 -29 0 -29 5 0 5 -13 0 -30
-5 -17 -5 -30 0 -30 5 0 5 -13 0 -30 -5 -17 -5 -30 0 -30 5 0 5 -13 0 -30 -5
-17 -5 -30 0 -30 5 0 5 -13 0 -30 -5 -17 -5 -30 0 -30 5 0 5 -13 0 -30 -5 -17
-5 -30 0 -30 5 0 5 -13 0 -30 -5 -17 -5 -30 0 -30 5 0 5 -13 0 -30 -5 -17 -5
-30 0 -30 5 0 5 -13 0 -30 -5 -17 -5 -30 0 -30 5 0 5 -13 0 -30 -5 -17 -5 -30
0 -30 5 0 5 -13 0 -30 -5 -16 -5 -30 -1 -30 4 0 4 -27 1 -60 -3 -33 -3 -60 1
-60 4 0 4 -13 -1 -30 -5 -17 -5 -30 0 -30 5 0 5 -13 0 -30 -5 -17 -5 -30 0
-30 5 0 5 -13 0 -30 -5 -17 -5 -30 0 -30 5 0 5 -13 0 -30 -5 -17 -5 -30 0 -30
5 0 5 -13 0 -30 -5 -17 -5 -30 0 -30 5 0 5 -13 0 -30 -5 -17 -5 -30 0 -30 5 0
5 -13 0 -30 -5 -17 -5 -30 0 -30 5 0 5 -13 0 -30 -5 -17 -5 -30 0 -30 5 0 5
-13 0 -30 -5 -17 -5 -30 0 -30 5 0 5 -13 0 -30 -5 -17 -5 -30 0 -30 5 0 5 -13
0 -29 -4 -15 -4 -34 0 -42 5 -7 5 -20 0 -29 -5 -9 -5 -22 0 -30 5 -8 5 -21 0
-30 -5 -9 -5 -22 0 -30 5 -8 5 -21 0 -30 -4 -8 -4 -22 0 -31 5 -8 5 -21 0 -28
-4 -8 -4 -27 0 -42 5 -16 5 -29 0 -29 -5 0 -5 -13 0 -30 5 -17 5 -30 0 -30 -5
0 -5 -13 0 -29 4 -15 4 -34 0 -42 -5 -7 -5 -20 0 -29 4 -8 4 -22 0 -31 -5 -8
-5 -21 0 -28 4 -8 4 -26 0 -42 -5 -15 -6 -30 -3 -33 3 -3 7 -33 8 -68 3 -52
10 -107 29 -203 9 -47 65 -202 94 -259 41 -82 101 -179 113 -184 5 -2 9 -10 9
-18 0 -8 3 -14 8 -14 4 0 14 -11 22 -24 29 -47 147 -163 225 -221 22 -17 42
-32 45 -35 9 -10 145 -88 197 -113 78 -37 237 -85 338 -101 77 -13 383 -15
2145 -13 1130 2 2066 6 2080 9 14 3 39 8 55 12 17 3 40 8 53 10 119 24 341
129 458 217 78 58 197 169 224 209 8 12 24 32 35 44 11 13 26 32 32 42 7 10
24 37 39 58 44 67 152 306 138 306 -2 0 1 12 7 28 6 15 13 36 15 47 14 67 25
138 28 180 1 17 5 35 9 42 4 6 3 14 -2 17 -5 3 -6 21 -1 40 4 19 4 40 -1 47
-4 7 -4 20 1 29 5 9 5 22 0 30 -5 8 -5 21 0 30 5 9 5 22 0 30 -5 8 -5 21 0 30
5 9 5 22 0 30 -5 8 -5 21 0 30 5 9 5 22 0 30 -5 8 -5 21 0 30 5 9 5 22 0 30
-5 8 -5 21 0 30 5 9 5 22 0 30 -5 8 -5 21 0 30 5 9 5 22 0 29 -4 8 -4 27 0 42
5 16 5 29 0 29 -5 0 -5 13 0 30 5 17 6 30 2 30 -8 0 -7 84 1 97 3 5 2 15 -3
23 -4 7 -4 24 0 36 6 14 5 26 0 29 -5 3 -5 18 0 35 5 17 5 32 0 35 -5 3 -6 15
0 29 4 12 4 29 0 36 -5 8 -5 21 0 30 5 9 5 22 0 30 -5 8 -5 21 0 30 5 9 5 22
0 30 -4 7 -4 24 0 36 6 14 5 26 0 29 -5 3 -5 18 0 35 5 17 5 32 0 35 -5 3 -6
15 0 29 4 12 4 29 0 36 -5 8 -5 21 0 30 5 9 5 22 0 30 -5 8 -5 21 0 30 5 9 5
22 0 30 -4 7 -4 24 0 36 6 14 5 26 0 29 -5 3 -5 18 0 35 5 17 5 32 0 35 -5 3
-6 15 0 29 4 12 4 29 0 36 -5 8 -5 21 0 30 5 9 5 22 0 30 -5 8 -5 21 0 30 5 9
5 22 0 30 -4 7 -4 24 0 36 6 14 5 26 0 29 -5 3 -5 18 0 35 5 17 5 32 0 35 -5
3 -6 15 0 29 4 12 4 29 0 36 -5 8 -6 18 -3 23 8 13 9 97 1 97 -4 0 -3 14 2 30
5 17 5 30 0 30 -5 0 -5 13 0 29 4 15 4 34 0 42 -5 7 -5 20 0 29 5 9 5 22 0 30
-5 8 -5 21 0 30 5 9 5 22 0 30 -5 8 -5 21 0 30 5 9 5 22 0 30 -5 8 -5 21 0 30
5 9 5 22 0 30 -5 8 -5 21 0 30 5 9 5 22 0 30 -5 8 -5 21 0 30 5 9 5 22 0 30
-5 8 -5 21 0 30 5 9 5 22 0 30 -5 8 -5 21 0 30 5 9 5 22 0 30 -5 8 -5 21 0 30
5 9 5 22 0 30 -5 8 -5 21 0 30 5 9 5 22 0 30 -5 8 -5 21 0 30 5 9 5 22 0 30
-5 8 -5 21 0 30 5 9 5 22 0 30 -5 8 -5 21 0 30 5 9 5 22 0 30 -5 8 -5 21 0 30
5 9 5 22 0 30 -5 8 -5 21 0 30 5 9 5 22 0 29 -4 8 -4 27 0 42 5 16 5 29 0 29
-5 0 -5 13 0 30 5 17 6 30 2 30 -8 0 -7 84 1 97 3 5 2 15 -3 23 -4 7 -4 24 0
36 6 14 5 26 0 29 -5 3 -5 18 0 35 5 17 5 32 0 35 -5 3 -6 15 0 29 4 12 4 29
0 36 -5 8 -5 21 0 30 5 9 5 22 0 30 -5 8 -5 21 0 30 5 9 5 22 0 30 -4 7 -4 24
0 36 6 14 5 26 0 29 -5 3 -5 18 0 35 5 17 5 32 0 35 -5 3 -6 15 0 29 4 12 4
29 0 36 -5 8 -5 21 0 30 5 9 5 22 0 30 -5 8 -5 21 0 30 5 9 5 22 0 30 -4 7 -4
24 0 36 6 14 5 26 0 29 -5 3 -5 18 0 35 5 17 5 32 0 35 -5 3 -6 15 0 29 4 12
4 29 0 36 -5 8 -5 21 0 30 5 9 5 22 0 30 -5 8 -5 21 0 30 5 9 5 22 0 30 -4 7
-4 24 0 36 6 14 5 26 0 29 -5 3 -5 18 0 35 5 17 5 32 0 35 -5 3 -6 15 0 29 4
12 4 29 0 36 -5 8 -6 18 -3 23 8 13 9 97 1 97 -4 0 -3 14 2 30 5 17 5 30 0 30
-5 0 -5 13 0 29 4 15 4 34 0 42 -5 7 -5 20 0 29 5 9 5 22 0 30 -5 8 -5 21 0
30 5 9 5 22 0 30 -5 8 -5 21 0 30 5 9 5 22 0 30 -5 8 -5 21 0 30 5 9 5 22 0
30 -5 8 -5 21 0 30 5 9 5 22 0 30 -5 8 -5 21 0 30 5 9 5 22 0 30 -5 8 -5 21 0
30 5 9 5 22 0 30 -5 8 -5 21 0 30 5 9 5 22 0 30 -5 8 -5 21 0 30 5 9 5 22 0
30 -5 8 -5 21 0 30 5 9 5 22 0 30 -5 8 -5 21 0 30 5 9 5 22 0 30 -5 8 -5 21 0
30 5 9 5 22 0 30 -5 8 -5 21 0 30 5 9 5 22 0 30 -5 8 -5 21 0 30 5 9 5 22 0
30 -5 8 -5 21 0 30 5 9 5 22 0 29 -4 8 -4 27 0 42 5 16 5 29 0 29 -5 0 -5 13
0 30 5 17 6 30 2 30 -8 0 -7 84 1 97 3 5 2 15 -3 23 -4 7 -4 24 0 36 6 14 5
26 0 29 -5 3 -5 18 0 35 5 17 5 32 0 35 -5 3 -6 15 0 29 4 12 4 29 0 36 -5 8
-5 21 0 30 5 9 5 22 0 30 -5 8 -5 21 0 30 5 9 5 22 0 30 -4 7 -4 24 0 36 6 14
5 26 0 29 -5 3 -5 18 0 35 5 17 5 32 0 35 -5 3 -5 16 0 30 6 15 6 27 0 30 -6
3 -6 15 0 30 8 22 6 25 -23 33 -18 5 -33 5 -35 1 -2 -4 -16 -3 -33 1 -16 5
-29 5 -29 0 0 -5 -13 -5 -30 0 -17 5 -30 5 -30 0 0 -5 -13 -5 -30 0 -17 5 -30
5 -30 0 0 -5 -13 -5 -30 0 -17 5 -30 5 -30 0 0 -5 -13 -5 -30 0 -17 5 -30 5
-30 0 0 -5 -13 -5 -30 0 -17 5 -30 5 -30 0 0 -5 -12 -5 -28 -1 -15 5 -37 5
-49 0 -13 -5 -25 -4 -28 1 -3 6 -15 6 -29 0 -13 -5 -27 -6 -30 -3 -7 7 -95 8
-102 1 -2 -3 -19 -2 -37 1 -18 4 -49 4 -69 0 -21 -3 -38 -3 -38 1 0 4 -16 4
-35 0 -19 -4 -35 -4 -35 0 0 5 -12 5 -28 1 -15 -5 -37 -5 -49 0 -12 4 -25 4
-28 0 -2 -5 -19 -5 -37 -2 -18 4 -50 4 -70 0 -21 -3 -38 -3 -38 1 0 4 -16 4
-35 0 -19 -4 -35 -4 -35 0 0 5 -12 5 -28 1 -15 -5 -37 -5 -49 0 -12 4 -25 4
-28 0 -2 -5 -19 -5 -37 -2 -18 4 -50 4 -70 0 -21 -3 -38 -3 -38 1 0 4 -16 4
-35 0 -19 -4 -35 -4 -35 0 0 5 -12 5 -28 1 -15 -5 -37 -5 -49 0 -12 4 -25 4
-28 0 -2 -5 -19 -5 -37 -2 -18 4 -50 4 -70 0 -21 -3 -38 -3 -38 1 0 4 -16 4
-35 0 -19 -4 -35 -4 -35 0 0 5 -12 5 -28 1 -15 -5 -37 -5 -49 0 -12 4 -25 4
-28 0 -2 -5 -19 -5 -37 -2 -18 4 -50 4 -70 0 -21 -3 -38 -3 -38 1 0 4 -16 4
-35 0 -19 -4 -35 -4 -35 0 0 5 -12 5 -28 1 -15 -5 -37 -5 -49 0 -12 4 -25 4
-28 0 -2 -5 -19 -5 -37 -2 -18 4 -50 4 -70 0 -21 -3 -38 -3 -38 1 0 4 -16 4
-35 0 -19 -4 -35 -4 -35 0 0 5 -12 5 -28 1 -15 -5 -37 -5 -49 0 -12 4 -25 4
-28 0 -2 -5 -19 -5 -37 -2 -18 4 -50 4 -70 0 -21 -3 -38 -3 -38 1 0 4 -16 4
-35 0 -19 -4 -35 -4 -35 0 0 5 -12 5 -28 1 -15 -5 -37 -5 -49 0 -12 4 -25 4
-28 0 -2 -5 -19 -5 -37 -2 -18 4 -50 4 -70 0 -21 -3 -38 -3 -38 1 0 4 -16 4
-35 0 -19 -4 -35 -4 -35 0 0 5 -12 5 -27 1 -29 -7 -76 -6 -100 3 -7 3 -13 1
-13 -3 0 -5 -15 -6 -32 -2 -18 4 -48 4 -65 0 -18 -3 -33 -3 -33 2 0 4 -14 4
-30 -1 -17 -5 -30 -5 -30 0 0 5 -13 5 -30 0 -17 -5 -30 -5 -30 0 0 5 -13 5
-30 0 -17 -5 -30 -5 -30 0 0 5 -13 5 -30 0 -17 -5 -30 -5 -30 0 0 5 -13 5 -30
0 -17 -5 -30 -5 -30 0 0 5 -13 5 -30 0 -17 -5 -30 -5 -30 0 0 5 -13 5 -30 0
-17 -5 -30 -5 -30 0 0 5 -13 5 -30 0 -17 -5 -30 -5 -30 0 0 5 -13 5 -30 0 -17
-5 -30 -5 -30 0 0 5 -13 5 -30 0 -17 -5 -30 -5 -30 0 0 5 -13 5 -30 0 -17 -5
-30 -5 -30 0 0 5 -13 5 -30 0 -17 -5 -30 -5 -30 0 0 5 -13 5 -30 0 -17 -5 -30
-5 -30 0 0 5 -13 5 -30 0 -17 -5 -30 -5 -30 0 0 5 -13 5 -30 0 -17 -5 -30 -5
-30 0 0 5 -13 5 -30 0 -17 -5 -30 -5 -30 0 0 5 -13 5 -30 0 -17 -5 -30 -5 -30
0 0 5 -13 5 -30 0 -17 -5 -30 -5 -30 0 0 5 -13 5 -30 0 -17 -5 -30 -5 -30 0 0
5 -13 5 -30 0 -17 -5 -30 -5 -30 0 0 5 -13 5 -30 0 -17 -5 -30 -5 -30 0 0 5
-13 5 -30 0 -17 -5 -30 -5 -30 0 0 5 -13 5 -30 0 -17 -5 -30 -5 -30 0 0 5 -13
5 -30 0 -17 -5 -30 -5 -30 0 0 5 -13 5 -30 0 -17 -5 -30 -5 -30 0 0 5 -13 5
-30 0 -17 -5 -30 -5 -30 0 0 5 -13 5 -30 0 -17 -5 -30 -5 -30 0 0 5 -13 5 -30
0 -17 -5 -30 -5 -30 0 0 5 -13 5 -30 0 -17 -5 -30 -5 -30 0 0 5 -13 5 -30 0
-17 -5 -30 -5 -30 0 0 5 -13 5 -30 0 -17 -5 -30 -5 -30 0 0 5 -13 5 -30 0 -17
-5 -30 -5 -30 0 0 5 -13 5 -30 0 -16 -5 -30 -6 -30 -2 0 4 -43 7 -95 7 -52 0
-95 -3 -95 -7 0 -4 -13 -3 -30 2 -17 5 -30 5 -30 0 0 -5 -13 -5 -29 0 -15 4
-34 4 -42 0 -7 -5 -20 -5 -29 0 -9 5 -22 5 -30 0 -8 -5 -21 -5 -30 0 -9 5 -22
5 -30 0 -8 -5 -21 -5 -30 0 -8 4 -22 4 -31 0 -8 -5 -21 -5 -29 0 -8 5 -21 5
-30 0 -9 -5 -22 -5 -30 0 -8 5 -21 5 -30 0 -9 -5 -22 -5 -30 0 -7 4 -24 4 -36
0 -14 -6 -26 -5 -29 0 -3 6 -15 6 -30 0 -14 -5 -27 -5 -30 0 -3 5 -18 5 -35 0
-17 -5 -30 -5 -30 0 0 5 -13 5 -30 0 -16 -5 -30 -6 -30 -2 0 4 -16 7 -35 7
-19 0 -35 -3 -35 -7z m2917 -1917 c13 5 25 4 28 -1 3 -5 18 -5 35 0 17 5 30 6
30 2 0 -4 16 -7 35 -7 19 0 35 4 35 8 0 5 5 5 11 2 13 -9 113 -10 126 -2 5 3
15 2 22 -3 8 -4 25 -4 40 0 14 4 35 4 46 0 11 -4 29 -4 41 0 11 5 27 5 34 0 7
-4 25 -4 41 0 15 5 30 6 33 3 3 -3 26 -7 51 -9 62 -5 130 -39 182 -92 58 -58
82 -113 89 -201 2 -29 7 -57 10 -62 3 -5 1 -9 -5 -9 -6 0 -6 -11 -1 -30 5 -17
5 -30 0 -30 -5 0 -5 -13 0 -29 4 -15 4 -34 0 -42 -5 -7 -5 -20 0 -28 4 -9 4
-23 0 -31 -5 -9 -5 -22 -1 -28 4 -7 4 -35 1 -62 -4 -28 -3 -50 1 -50 4 0 4
-13 -1 -30 -5 -17 -5 -30 0 -30 5 0 5 -13 0 -30 -5 -17 -5 -30 0 -30 5 0 5
-13 0 -30 -5 -17 -5 -30 0 -30 5 0 5 -13 0 -30 -5 -17 -5 -30 0 -30 5 0 5 -13
0 -30 -5 -17 -5 -30 0 -30 5 0 5 -13 0 -30 -5 -17 -5 -30 0 -30 5 0 5 -13 0
-30 -5 -17 -5 -30 0 -30 5 0 5 -13 0 -30 -5 -17 -5 -30 0 -30 5 0 5 -13 0 -30
-5 -16 -5 -30 0 -30 4 0 7 -8 6 -17 -1 -13 6 -18 22 -17 12 0 22 -3 22 -7 0
-4 13 -4 29 1 15 4 34 4 42 0 7 -5 17 -6 22 -3 12 7 146 8 153 0 3 -3 16 -2
28 3 13 4 29 4 36 0 8 -5 18 -6 23 -3 12 7 146 8 153 0 3 -3 16 -2 28 3 13 4
29 4 36 0 8 -5 18 -6 23 -3 12 7 146 8 153 0 3 -3 16 -2 28 3 13 4 28 5 35 0
7 -4 28 -4 47 0 18 4 35 6 37 3 3 -2 32 -6 66 -8 34 -2 67 -8 74 -12 7 -4 17
-8 24 -9 42 -7 128 -91 162 -160 20 -38 34 -138 32 -214 0 -8 0 -51 0 -95 0
-67 -1 -226 -2 -260 0 -5 0 -37 1 -70 1 -64 -6 -200 -12 -225 -10 -39 -46 -98
-84 -136 -54 -52 -123 -85 -192 -89 -30 -2 -57 -6 -59 -9 -3 -3 -14 -1 -24 4
-12 7 -20 7 -24 0 -4 -7 -12 -7 -24 0 -10 5 -21 7 -24 4 -8 -9 -77 -11 -77 -2
0 3 -13 3 -30 -2 -16 -5 -30 -5 -30 0 0 4 -15 5 -33 0 -18 -4 -43 -3 -55 1
-12 5 -22 4 -22 -1 0 -5 -13 -5 -30 0 -16 5 -30 5 -30 2 0 -9 -75 -6 -89 3 -5
3 -12 1 -16 -4 -4 -7 -15 -7 -30 -1 -14 5 -25 6 -25 2 0 -4 -25 -7 -55 -7 -30
0 -55 3 -55 7 0 4 -13 3 -30 -2 -18 -5 -30 -5 -30 0 0 6 -10 6 -25 0 -15 -6
-26 -6 -30 0 -4 6 -13 7 -24 1 -9 -5 -23 -6 -31 -1 -7 4 -24 4 -36 0 -14 -6
-26 -5 -29 1 -15 23 -23 -7 -23 -80 0 -44 -2 -83 -5 -88 -3 -5 -2 -15 3 -23 5
-8 5 -21 0 -30 -5 -9 -5 -22 0 -30 5 -8 5 -21 0 -30 -5 -9 -5 -22 0 -30 5 -8
5 -21 0 -30 -5 -9 -5 -22 0 -30 5 -8 5 -21 0 -30 -5 -9 -5 -22 0 -30 5 -8 5
-21 0 -30 -5 -9 -5 -22 0 -30 5 -8 5 -21 0 -30 -5 -9 -5 -22 0 -30 5 -8 5 -21
0 -30 -5 -9 -5 -22 0 -30 5 -8 5 -21 0 -30 -5 -9 -5 -22 0 -30 4 -7 4 -24 0
-36 -6 -14 -5 -26 0 -29 6 -3 6 -15 0 -30 -6 -15 -6 -27 0 -30 6 -3 6 -15 0
-29 -5 -13 -6 -27 -3 -30 6 -6 7 -31 2 -121 -2 -45 -31 -136 -51 -161 -46 -58
-129 -121 -165 -127 -10 -1 -22 -5 -28 -8 -5 -3 -39 -7 -75 -8 -35 -2 -68 -5
-72 -7 -5 -3 -8 -2 -8 3 0 4 -28 7 -62 5 -99 -4 -159 -3 -169 3 -5 4 -9 1 -9
-5 0 -6 -4 -9 -9 -5 -10 6 -70 7 -169 3 -34 -2 -62 -1 -62 2 0 3 -30 5 -68 4
-102 -1 -169 24 -234 89 -53 53 -88 122 -92 182 -2 25 -6 48 -9 52 -4 3 -2 13
3 22 5 10 5 23 0 31 -4 7 -4 24 0 36 6 14 5 26 0 29 -5 3 -5 18 0 35 5 17 5
32 0 35 -5 3 -6 15 0 29 4 12 4 29 0 36 -5 8 -6 18 -3 23 8 13 9 97 1 97 -4 0
-3 14 2 30 5 17 5 30 0 30 -5 0 -5 13 0 30 5 17 5 30 0 30 -5 0 -5 13 0 30 5
17 5 30 0 30 -5 0 -5 13 0 30 5 17 5 30 0 30 -5 0 -5 13 0 30 5 17 5 30 0 30
-5 0 -5 13 0 30 5 17 5 30 0 30 -5 0 -5 13 0 30 5 17 5 30 0 30 -5 0 -5 13 0
30 5 17 5 30 0 30 -5 0 -5 13 0 29 4 15 4 34 0 42 -5 7 -7 16 -4 20 2 5 -38 7
-89 7 -51 -1 -99 2 -105 6 -7 4 -12 3 -12 -3 0 -6 -11 -6 -30 -1 -16 5 -30 6
-30 2 0 -4 -25 -7 -55 -7 -30 0 -55 3 -55 7 0 4 -13 3 -30 -2 -18 -5 -30 -5
-30 0 0 6 -10 6 -25 0 -15 -6 -27 -6 -30 0 -3 6 -15 6 -30 0 -15 -6 -27 -6
-30 0 -4 6 -13 7 -24 1 -9 -5 -23 -6 -30 -1 -8 4 -27 4 -42 0 -17 -5 -29 -5
-29 0 0 6 -10 6 -25 0 -15 -6 -27 -6 -30 0 -3 6 -15 6 -30 0 -15 -6 -27 -6
-30 1 -4 6 -13 6 -23 0 -9 -5 -23 -6 -32 -1 -9 5 -22 5 -30 0 -8 -5 -21 -5
-31 1 -12 6 -20 5 -24 -1 -4 -6 -10 -8 -15 -5 -5 3 -30 8 -57 11 -26 3 -52 10
-58 15 -5 5 -17 9 -26 9 -9 0 -22 7 -29 15 -7 9 -15 13 -18 10 -9 -9 -86 81
-110 129 -20 39 -36 141 -33 216 0 8 0 51 0 95 0 67 1 226 2 260 0 6 0 37 -1
70 -1 63 6 199 13 225 24 104 143 208 258 225 24 4 47 9 51 11 3 2 9 0 13 -5
3 -6 15 -7 28 -2 12 5 31 5 42 1 11 -4 24 -5 30 -2 11 7 91 6 103 -1 4 -3 14
-2 21 3 8 4 25 4 40 0 14 -4 35 -4 46 0 11 4 32 4 48 -1 15 -4 27 -5 27 -1 0
4 16 7 35 7 19 0 35 -3 35 -7 0 -4 13 -3 30 2 17 5 32 5 35 0 3 -5 16 -5 28
-1 12 5 32 5 44 0 13 -5 25 -4 28 1 3 5 18 5 35 0 17 -5 30 -6 30 -2 0 8 68 8
76 0 3 -3 21 -2 40 2 19 4 36 4 39 0 3 -5 19 -5 35 0 17 5 32 5 35 0 11 -17
33 2 37 31 3 16 1 29 -3 29 -4 0 -4 14 1 30 5 17 5 30 0 30 -5 0 -5 13 0 29 4
15 4 34 0 42 -5 7 -5 20 0 29 5 9 5 22 0 30 -5 8 -5 21 0 30 5 9 5 22 0 30 -5
8 -5 21 0 30 5 9 5 22 0 30 -5 8 -5 21 0 30 5 9 5 22 0 30 -5 8 -5 21 0 30 5
9 5 22 0 30 -5 8 -5 21 0 30 5 9 5 22 0 30 -5 8 -5 21 0 30 5 9 5 22 0 30 -5
8 -5 21 0 30 5 9 5 22 0 30 -5 8 -5 21 0 30 5 9 5 22 0 30 -4 7 -4 24 0 36 6
14 5 26 0 29 -6 3 -6 15 0 29 5 13 6 27 3 30 -6 6 -7 31 -2 121 2 45 31 136
51 161 48 60 128 120 170 128 13 3 23 5 23 6 0 2 17 4 38 5 21 1 40 5 43 8 3
3 16 2 27 -2 12 -5 32 -5 44 0z"/>
</g>
</svg>
